<svg width="11" height="12" viewBox="0 0 11 12" fill="none" xmlns="http://www.w3.org/2000/svg">
<path d="M7.6084 5.13281C7.03027 5.71094 6.32715 6 5.49902 6C4.6709 6 3.95996 5.71094 3.36621 5.13281C2.78809 4.53906 2.49902 3.82812 2.49902 3C2.49902 2.17188 2.78809 1.46875 3.36621 0.890625C3.95996 0.296875 4.6709 0 5.49902 0C6.32715 0 7.03027 0.296875 7.6084 0.890625C8.20215 1.46875 8.49902 2.17188 8.49902 3C8.49902 3.82812 8.20215 4.53906 7.6084 5.13281ZM7.6084 6.75C8.46777 6.75 9.20215 7.0625 9.81152 7.6875C10.4365 8.29688 10.749 9.03125 10.749 9.89062V10.875C10.749 11.1875 10.6396 11.4531 10.4209 11.6719C10.2021 11.8906 9.93652 12 9.62402 12H1.37402C1.06152 12 0.795898 11.8906 0.577148 11.6719C0.358398 11.4531 0.249023 11.1875 0.249023 10.875V9.89062C0.249023 9.03125 0.553711 8.29688 1.16309 7.6875C1.78809 7.0625 2.53027 6.75 3.38965 6.75H3.78809C4.33496 7 4.90527 7.125 5.49902 7.125C6.09277 7.125 6.66309 7 7.20996 6.75H7.6084Z" fill="#385170"/>
</svg>
