<svg width="15" height="14" viewBox="0 0 15 14" fill="none" xmlns="http://www.w3.org/2000/svg">
<path d="M14.4229 1.85677C14.5505 1.85677 14.6507 1.90234 14.7236 1.99349C14.8148 2.06641 14.8604 2.16667 14.8604 2.29427V3.16927C14.8604 3.66146 14.6872 4.08073 14.3408 4.42708C14.0127 4.75521 13.6025 4.91927 13.1104 4.91927H12.2354V5.90365L8.73535 4.64583V0.544271C8.73535 0.34375 8.8265 0.207031 9.00879 0.134115C9.19108 0.0611979 9.34603 0.0976562 9.47363 0.24349L10.2393 0.981771H11.6885C11.8343 0.981771 11.9801 1.02734 12.126 1.11849C12.29 1.20964 12.4085 1.32812 12.4814 1.47396L12.6729 1.85677H14.4229ZM11.0322 3.0599C11.1234 3.13281 11.2327 3.16927 11.3604 3.16927C11.488 3.16927 11.5882 3.13281 11.6611 3.0599C11.7523 2.96875 11.7979 2.85938 11.7979 2.73177C11.7979 2.60417 11.7523 2.50391 11.6611 2.43099C11.5882 2.33984 11.488 2.29427 11.3604 2.29427C11.2327 2.29427 11.1234 2.33984 11.0322 2.43099C10.9593 2.50391 10.9229 2.60417 10.9229 2.73177C10.9229 2.85938 10.9593 2.96875 11.0322 3.0599ZM3.48535 5.35677H8.13379L12.2354 6.83333V12.7943C12.2354 12.9219 12.1898 13.0221 12.0986 13.0951C12.0257 13.1862 11.9255 13.2318 11.7979 13.2318H10.0479C9.92025 13.2318 9.81087 13.1862 9.71973 13.0951C9.64681 13.0221 9.61035 12.9219 9.61035 12.7943V9.73177H5.23535V12.7943C5.23535 12.9219 5.18978 13.0221 5.09863 13.0951C5.02572 13.1862 4.92546 13.2318 4.79785 13.2318H3.04785C2.92025 13.2318 2.81087 13.1862 2.71973 13.0951C2.64681 13.0221 2.61035 12.9219 2.61035 12.7943V6.94271C2.09993 6.76042 1.68066 6.45052 1.35254 6.01302C1.02441 5.55729 0.860352 5.04688 0.860352 4.48177C0.860352 4.24479 0.942383 4.04427 1.10645 3.88021C1.28874 3.69792 1.49837 3.60677 1.73535 3.60677C1.97233 3.60677 2.17285 3.69792 2.33691 3.88021C2.51921 4.04427 2.61035 4.24479 2.61035 4.48177C2.61035 4.71875 2.69238 4.92839 2.85645 5.11068C3.03874 5.27474 3.24837 5.35677 3.48535 5.35677Z" fill="#F99D0B"/>
</svg>
