<svg width="41" height="41" viewBox="0 0 41 41" fill="none" xmlns="http://www.w3.org/2000/svg">
<rect x="0.00292969" y="0.000976562" width="40.14" height="40.14" rx="20.07" fill="#F99D0B"/>
<path d="M26.8545 20.1123C26.8545 23.5029 24.3662 26.3193 21.1123 26.8115V22.0811H22.6982L22.999 20.1123H21.1123V18.8545C21.1123 18.3076 21.3857 17.7881 22.2334 17.7881H23.0811V16.1201C23.0811 16.1201 22.3154 15.9834 21.5498 15.9834C20.0186 15.9834 19.0068 16.9404 19.0068 18.6357V20.1123H17.2842V22.0811H19.0068V26.8115C15.7529 26.3193 13.292 23.5029 13.292 20.1123C13.292 16.3662 16.3271 13.3311 20.0732 13.3311C23.8193 13.3311 26.8545 16.3662 26.8545 20.1123Z" fill="white"/>
</svg>
