<svg width="167" height="63" viewBox="0 0 167 63" fill="none" xmlns="http://www.w3.org/2000/svg">
<path fill-rule="evenodd" clip-rule="evenodd" d="M8.46412 0.000976562C12.6675 0.000976562 15.894 0.747326 18.1449 2.24002C20.3958 3.73392 21.5218 6.17869 21.5218 9.57554C21.5218 12.9999 20.3828 15.4722 18.1047 16.9924C15.8265 18.5126 12.5716 19.2733 8.34218 19.2733H6.34824V28.806H0.00292969V0.740157C1.3859 0.467447 2.85056 0.274887 4.39574 0.164847C5.94211 0.0559966 7.29784 0.000986562 8.46413 0.000986562L8.46412 0.000976562ZM8.87026 5.46584C8.40964 5.46584 7.95498 5.48019 7.50741 5.5077C7.06103 5.53521 6.67384 5.56152 6.34823 5.58903V13.8072H8.34217C10.5386 13.8072 12.1927 13.507 13.3045 12.9042C14.4163 12.3014 14.9728 11.1783 14.9728 9.53488C14.9728 8.73949 14.8296 8.08285 14.5454 7.56136C14.26 7.04226 13.8539 6.62364 13.3246 6.30787C12.7954 5.9945 12.1512 5.77442 11.3923 5.65122C10.6333 5.52803 9.79263 5.46583 8.87027 5.46583L8.87026 5.46584Z" fill="#F99D0B"/>
<path fill-rule="evenodd" clip-rule="evenodd" d="M23.4717 18.1009C23.4717 16.1729 23.7653 14.4852 24.3514 13.038C24.9387 11.5919 25.7084 10.3863 26.6639 9.42224C27.6182 8.4582 28.7159 7.72741 29.9567 7.23104C31.1976 6.73586 32.4728 6.48828 33.7824 6.48828C36.8361 6.48828 39.2503 7.43198 41.024 9.31938C42.7965 11.2068 43.6834 13.9829 43.6834 17.6464C43.6834 18.0053 43.6692 18.3976 43.642 18.8246C43.6147 19.2516 43.5875 19.6295 43.5614 19.9608H29.7318C29.8679 21.2287 30.454 22.2346 31.4913 22.9785C32.5273 23.7225 33.9186 24.0945 35.665 24.0945C36.7828 24.0945 37.8804 23.9904 38.9579 23.7835C40.0353 23.5778 40.9151 23.323 41.5971 23.0192L42.4153 28.02C42.0873 28.185 41.6504 28.3513 41.1057 28.5164C40.5599 28.6814 39.9525 28.8261 39.2847 28.9505C38.6169 29.0737 37.9005 29.1766 37.1368 29.2603C36.3731 29.3428 35.6094 29.3847 34.8457 29.3847C32.9086 29.3847 31.2248 29.0953 29.7933 28.5163C28.3618 27.9374 27.1742 27.1456 26.2341 26.1398C25.2927 25.135 24.5965 23.9426 24.1466 22.5647C23.6978 21.1868 23.4717 19.7001 23.4717 18.1009H23.4717ZM37.7916 15.7459C37.7643 15.222 37.6755 14.7125 37.5264 14.2161C37.376 13.7209 37.1439 13.2796 36.8301 12.8932C36.5164 12.5081 36.1209 12.1911 35.6437 11.9424C35.1665 11.6948 34.5733 11.5716 33.8641 11.5716C33.1821 11.5716 32.596 11.6888 32.1046 11.922C31.6144 12.1577 31.2047 12.4675 30.8779 12.8526C30.5499 13.2389 30.2977 13.6862 30.1201 14.1958C29.9425 14.7053 29.8135 15.222 29.7318 15.7459H37.7916Z" fill="white"/>
<path fill-rule="evenodd" clip-rule="evenodd" d="M48.1846 1.6529L54.2812 0.660156V7.06633H61.6046V12.1915H54.2812V19.838C54.2812 21.1333 54.505 22.1668 54.9561 22.937C55.4061 23.7085 56.3119 24.0948 57.6771 24.0948C58.3307 24.0948 59.0056 24.0326 59.7018 23.9082C60.3968 23.7838 61.0315 23.6128 61.6046 23.3915L62.463 28.1854C61.7265 28.4892 60.9083 28.7511 60.0085 28.9712C59.1086 29.1913 58.0039 29.3013 56.6943 29.3013C55.0307 29.3013 53.6525 29.0741 52.562 28.6196C51.4715 28.1651 50.5988 27.5323 49.944 26.719C49.2893 25.9057 48.8322 24.9213 48.5729 23.7635C48.3136 22.6057 48.1846 21.3247 48.1846 19.9193V1.6529Z" fill="white"/>
<path fill-rule="evenodd" clip-rule="evenodd" d="M80.0767 16.324C79.5308 18.4195 78.9518 20.4983 78.3373 22.5651C77.724 24.6319 77.0763 26.7131 76.3943 28.8062H71.6486C71.1561 27.6484 70.622 26.2717 70.0478 24.6738C69.4735 23.0746 68.8779 21.332 68.2634 19.4446C67.6477 17.5584 67.019 15.5597 66.3748 13.4522C65.7319 11.3448 65.1103 9.21576 64.5088 7.06642H70.9322C71.1513 8.05916 71.3917 9.14041 71.6522 10.3114C71.9126 11.4823 72.1873 12.688 72.4751 13.9271C72.764 15.1674 73.0659 16.4149 73.3809 17.6672C73.697 18.9219 74.0191 20.1275 74.3482 21.2841C74.7034 20.0713 75.0504 18.8322 75.3914 17.5643C75.7324 16.2977 76.0592 15.0502 76.373 13.8242C76.6867 12.5982 76.9875 11.4129 77.274 10.2695C77.5606 9.12605 77.8128 8.05916 78.0306 7.06641H82.4495C82.6674 8.05915 82.9136 9.12605 83.186 10.2695C83.4583 11.4129 83.7448 12.5982 84.0456 13.8242C84.3452 15.0502 84.6589 16.2977 84.9857 17.5643C85.3137 18.8322 85.6535 20.0713 86.0087 21.2841C86.3379 20.1275 86.6671 18.9219 86.9963 17.6672C87.3254 16.4149 87.6344 15.1674 87.9233 13.9271C88.2111 12.688 88.4846 11.4823 88.7463 10.3114C89.0068 9.14041 89.2459 8.05917 89.4662 7.06642H95.8079C95.2052 9.21577 94.5836 11.3448 93.9407 13.4522C93.2978 15.5597 92.6679 17.5584 92.0533 19.4446C91.4376 21.332 90.8361 23.0746 90.2476 24.6738C89.6604 26.2717 89.1192 27.6484 88.6267 28.8062H83.881C83.199 26.7131 82.5312 24.6319 81.8764 22.5651C81.2228 20.4983 80.6225 18.4195 80.0767 16.324Z" fill="white"/>
<path fill-rule="evenodd" clip-rule="evenodd" d="M97.5264 18.1009C97.5264 16.1729 97.82 14.4852 98.4061 13.038C98.9922 11.5919 99.763 10.3863 100.717 9.42224C101.672 8.4582 102.771 7.72741 104.011 7.23104C105.252 6.73586 106.527 6.48828 107.837 6.48828C110.891 6.48828 113.305 7.43198 115.079 9.31938C116.851 11.2068 117.738 13.9829 117.738 17.6464C117.738 18.0053 117.724 18.3976 117.697 18.8246C117.669 19.2516 117.641 19.6295 117.615 19.9608H103.786C103.923 21.2287 104.509 22.2346 105.545 22.9785C106.582 23.7225 107.973 24.0945 109.719 24.0945C110.837 24.0945 111.935 23.9904 113.013 23.7835C114.089 23.5778 114.969 23.323 115.652 23.0192L116.47 28.02C116.142 28.185 115.705 28.3513 115.16 28.5164C114.615 28.6814 114.007 28.8261 113.339 28.9505C112.67 29.0737 111.955 29.1766 111.191 29.2603C110.428 29.3428 109.664 29.3847 108.9 29.3847C106.963 29.3847 105.28 29.0953 103.847 28.5163C102.415 27.9374 101.229 27.1456 100.288 26.1398C99.3463 25.135 98.6512 23.9426 98.2013 22.5647C97.7513 21.1868 97.5264 19.7001 97.5264 18.1009H97.5264ZM111.846 15.7459C111.819 15.222 111.73 14.7125 111.58 14.2161C111.429 13.7209 111.199 13.2796 110.885 12.8932C110.571 12.5081 110.174 12.1911 109.698 11.9424C109.22 11.6948 108.627 11.5716 107.919 11.5716C107.237 11.5716 106.649 11.6888 106.159 11.922C105.668 12.1577 105.258 12.4675 104.931 12.8526C104.605 13.2389 104.352 13.6862 104.175 14.1958C103.997 14.7053 103.868 15.222 103.786 15.7459H111.846Z" fill="white"/>
<path fill-rule="evenodd" clip-rule="evenodd" d="M121.42 18.1009C121.42 16.1729 121.712 14.4852 122.3 13.038C122.886 11.5919 123.657 10.3863 124.611 9.42224C125.565 8.4582 126.663 7.72741 127.905 7.23104C129.146 6.73586 130.421 6.48828 131.731 6.48828C134.784 6.48828 137.199 7.43198 138.971 9.31938C140.745 11.2068 141.632 13.9829 141.632 17.6464C141.632 18.0053 141.617 18.3976 141.59 18.8246C141.563 19.2516 141.536 19.6295 141.507 19.9608H127.679C127.815 21.2287 128.402 22.2346 129.438 22.9785C130.476 23.7225 131.867 24.0945 133.612 24.0945C134.73 24.0945 135.827 23.9904 136.906 23.7835C137.982 23.5778 138.862 23.323 139.544 23.0192L140.364 28.02C140.036 28.185 139.599 28.3513 139.054 28.5164C138.507 28.6814 137.901 28.8261 137.233 28.9505C136.564 29.0737 135.848 29.1766 135.085 29.2603C134.32 29.3428 133.556 29.3847 132.794 29.3847C130.857 29.3847 129.173 29.0953 127.74 28.5163C126.309 27.9374 125.122 27.1456 124.181 26.1398C123.241 25.135 122.545 23.9426 122.095 22.5647C121.645 21.1868 121.42 19.7001 121.42 18.1009H121.42ZM135.739 15.7459C135.711 15.222 135.624 14.7125 135.473 14.2161C135.323 13.7209 135.091 13.2796 134.778 12.8932C134.463 12.5081 134.069 12.1911 133.592 11.9424C133.115 11.6948 132.52 11.5716 131.811 11.5716C131.13 11.5716 130.543 11.6888 130.053 11.922C129.561 12.1577 129.153 12.4675 128.825 12.8526C128.498 13.2389 128.245 13.6862 128.068 14.1958C127.891 14.7053 127.762 15.222 127.679 15.7459H135.739Z" fill="white"/>
<path fill-rule="evenodd" clip-rule="evenodd" d="M146.336 7.81042C147.372 7.50782 148.709 7.22554 150.345 6.9636C151.983 6.70166 153.701 6.57129 155.5 6.57129C157.327 6.57129 158.848 6.8129 160.063 7.29492C161.276 7.77694 162.238 8.45869 162.947 9.3402C163.656 10.2217 164.159 11.2683 164.46 12.4811C164.76 13.6939 164.91 15.0431 164.91 16.531V28.8063H158.815V17.2749C158.815 15.2919 158.555 13.8865 158.037 13.0588C157.519 12.2323 156.55 11.8197 155.132 11.8197C154.695 11.8197 154.232 11.84 153.741 11.8818C153.251 11.9225 152.814 11.9716 152.433 12.0266V28.8063H146.336L146.336 7.81042Z" fill="white"/>
<path fill-rule="evenodd" clip-rule="evenodd" d="M152.382 61.5687C155.6 59.8284 156.729 60.5341 158.098 61.2996C168.543 67.14 165.576 56.3909 161.094 52.4032C158.472 50.0709 154.679 48.8604 151.08 50.8997C143.961 54.9377 142.281 67.0312 152.382 61.5687Z" fill="#F99D0B"/>
<path fill-rule="evenodd" clip-rule="evenodd" d="M155.26 39.9987C157.028 40.031 158.435 41.4399 158.391 43.8524C158.347 46.2637 156.867 48.7635 155.1 48.7312C153.334 48.6977 151.948 46.1429 151.992 43.7316C152.036 41.3203 153.495 39.9652 155.26 39.9987V39.9987Z" fill="#F99D0B"/>
<path fill-rule="evenodd" clip-rule="evenodd" d="M144.158 43.2986C145.766 42.7029 147.761 43.4816 148.968 45.6836C150.176 47.8867 150.138 50.6784 148.53 51.2752C146.922 51.872 144.353 50.0468 143.145 47.8449C141.938 45.6417 142.549 43.8954 144.158 43.2986Z" fill="#F99D0B"/>
<path fill-rule="evenodd" clip-rule="evenodd" d="M165.064 42.9022C166.736 43.3878 167.549 45.085 166.604 47.3611C165.659 49.636 163.312 51.6275 161.641 51.1431C159.969 50.6575 159.606 47.879 160.551 45.6041C161.496 43.3279 163.394 42.4166 165.064 42.9022V42.9022Z" fill="#F99D0B"/>
<path fill-rule="evenodd" clip-rule="evenodd" d="M66.8907 62.9731C62.2812 62.9731 58.7693 61.6777 56.3562 59.0882C53.9419 56.4987 52.7354 52.8208 52.7354 48.0533C52.7354 45.6838 53.1036 43.5692 53.8389 41.7093C54.5766 39.8494 55.5854 38.279 56.8677 36.998C58.1488 35.717 59.6762 34.7446 61.4488 34.0843C63.2225 33.4229 65.1454 33.0928 67.2187 33.0928C68.4181 33.0928 69.5098 33.1813 70.4914 33.3607C71.473 33.5401 72.3326 33.747 73.069 33.9815C73.8055 34.2147 74.4189 34.4563 74.9102 34.7039C75.4004 34.9527 75.7557 35.1452 75.9735 35.2828L74.1323 40.4905C73.2597 40.0216 72.2438 39.6222 71.0846 39.2908C69.9254 38.9607 68.6099 38.7957 67.137 38.7957C66.1554 38.7957 65.1939 38.9607 64.2514 39.2908C63.3113 39.6222 62.4789 40.1532 61.7566 40.8828C61.0332 41.6124 60.453 42.5561 60.0173 43.7139C59.5803 44.8705 59.3625 46.2759 59.3625 47.9301C59.3625 49.2517 59.5058 50.4849 59.7923 51.6283C60.0788 52.7718 60.543 53.7573 61.1835 54.5838C61.8241 55.4091 62.6624 56.0646 63.6997 56.5466C64.7369 57.0286 65.9908 57.269 67.4637 57.269C68.3908 57.269 69.2232 57.2152 69.9597 57.104C70.6962 56.9939 71.351 56.8635 71.924 56.7116C72.4959 56.5609 73.0003 56.3887 73.4373 56.1949C73.873 56.0024 74.2684 55.823 74.6237 55.6579L76.3832 60.8237C75.4833 61.3751 74.2152 61.8715 72.5776 62.3116C70.9413 62.7518 69.0456 62.9731 66.8906 62.9731L66.8907 62.9731Z" fill="white"/>
<path fill-rule="evenodd" clip-rule="evenodd" d="M88.2055 40.0771C90.0065 40.0771 91.5067 40.2841 92.7061 40.6967C93.9067 41.1105 94.8682 41.7038 95.5916 42.4741C96.3139 43.2467 96.8254 44.1833 97.125 45.2848C97.4257 46.3876 97.5761 47.6136 97.5761 48.9628V61.7751C96.7023 61.9677 95.4886 62.1961 93.934 62.4569C92.3793 62.7188 90.4979 62.8492 88.2884 62.8492C86.8971 62.8492 85.635 62.726 84.503 62.4784C83.3711 62.2296 82.3966 61.8229 81.5784 61.2584C80.7602 60.6938 80.1315 59.9559 79.6958 59.0481C79.2601 58.1378 79.041 57.0219 79.041 55.699C79.041 54.4324 79.2932 53.3583 79.7988 52.4768C80.3032 51.5941 80.9781 50.892 81.8235 50.3681C82.6689 49.8455 83.6375 49.4663 84.7292 49.2319C85.8197 48.9975 86.9516 48.8802 88.125 48.8802C88.9148 48.8802 89.6169 48.9149 90.2314 48.9831C90.8448 49.0525 91.3433 49.1422 91.7245 49.2522V48.6733C91.7245 47.6268 91.4108 46.7871 90.7844 46.152C90.1557 45.5193 89.0652 45.2023 87.5105 45.2023C86.4733 45.2023 85.4514 45.2789 84.4426 45.4296C83.4326 45.5815 82.56 45.7944 81.8235 46.0707L81.0468 41.1106C81.4008 41.0005 81.8436 40.8833 82.3765 40.7589C82.9081 40.6357 83.4871 40.5257 84.1147 40.4288C84.7422 40.3319 85.4041 40.2506 86.0991 40.18C86.7942 40.1118 87.4963 40.0771 88.2055 40.0771H88.2055ZM88.6981 58.0972C89.296 58.0972 89.8691 58.0828 90.4162 58.0553C90.9608 58.0278 91.3977 57.9871 91.7245 57.9321V53.2614C91.4794 53.2064 91.1112 53.1514 90.6198 53.0964C90.1296 53.0414 89.6797 53.0127 89.27 53.0127C88.6981 53.0127 88.1582 53.0486 87.6538 53.1167C87.1494 53.1861 86.7065 53.3165 86.3241 53.509C85.9416 53.7016 85.6421 53.9635 85.4242 54.2949C85.2052 54.625 85.0962 55.0388 85.0962 55.534C85.0962 56.4992 85.4171 57.1666 86.0577 57.5386C86.6994 57.9106 87.578 58.0972 88.6981 58.0972H88.6981Z" fill="white"/>
<path fill-rule="evenodd" clip-rule="evenodd" d="M116.069 46.1119C115.523 45.9744 114.882 45.8297 114.146 45.6778C113.409 45.5271 112.618 45.4505 111.773 45.4505C111.391 45.4505 110.933 45.4852 110.402 45.5534C109.87 45.6228 109.468 45.6981 109.195 45.7818V62.3953H103.099V41.8145C104.19 41.4281 105.479 41.0633 106.965 40.7189C108.452 40.3744 110.109 40.2021 111.936 40.2021C112.264 40.2021 112.659 40.2225 113.123 40.2643C113.586 40.305 114.05 40.36 114.514 40.4294C114.977 40.4988 115.441 40.5813 115.905 40.677C116.368 40.7739 116.765 40.8911 117.092 41.0286L116.069 46.1119Z" fill="white"/>
<path fill-rule="evenodd" clip-rule="evenodd" d="M118.934 51.691C118.934 49.7617 119.226 48.0753 119.813 46.628C120.399 45.182 121.169 43.9763 122.125 43.0111C123.079 42.0471 124.177 41.3175 125.419 40.8211C126.66 40.3247 127.935 40.0771 129.243 40.0771C132.298 40.0771 134.712 41.0208 136.486 42.9082C138.258 44.7957 139.144 47.5717 139.144 51.2365C139.144 51.5941 139.131 51.9876 139.104 52.4134C139.077 52.8416 139.049 53.2196 139.022 53.5509H125.194C125.33 54.8187 125.916 55.8234 126.953 56.5674C127.988 57.3114 129.379 57.6833 131.126 57.6833C132.244 57.6833 133.341 57.5805 134.42 57.3735C135.496 57.1666 136.376 56.9131 137.058 56.6093L137.876 61.61C137.549 61.7751 137.112 61.9402 136.568 62.1052C136.022 62.2715 135.414 62.4162 134.747 62.5394C134.079 62.6638 133.362 62.7666 132.599 62.8492C131.835 62.9317 131.07 62.9736 130.308 62.9736C128.37 62.9736 126.687 62.6841 125.255 62.1052C123.823 61.5263 122.636 60.7357 121.695 59.7298C120.755 58.7239 120.058 57.5326 119.609 56.1547C119.159 54.7769 118.934 53.289 118.934 51.691V51.691ZM133.253 49.3347C133.226 48.8121 133.137 48.3013 132.987 47.8062C132.838 47.3098 132.605 46.8696 132.292 46.4833C131.978 46.0982 131.583 45.7812 131.104 45.5324C130.627 45.2848 130.035 45.1605 129.326 45.1605C128.644 45.1605 128.058 45.2789 127.566 45.5121C127.075 45.7465 126.667 46.0563 126.339 46.4414C126.012 46.829 125.76 47.2751 125.582 47.7858C125.404 48.2954 125.275 48.8121 125.194 49.3347H133.253Z" fill="white"/>
</svg>
