<svg width="41" height="41" viewBox="0 0 41 41" fill="none" xmlns="http://www.w3.org/2000/svg">
<rect x="0.142578" y="0.000976562" width="40.14" height="40.14" rx="20.07" fill="#F99D0B"/>
<path d="M20.2277 16.6553C22.091 16.6553 23.6289 18.1932 23.6289 20.0565C23.6289 21.9494 22.091 23.4577 20.2277 23.4577C18.3348 23.4577 16.8265 21.9494 16.8265 20.0565C16.8265 18.1932 18.3348 16.6553 20.2277 16.6553ZM20.2277 22.2747C21.4403 22.2747 22.4163 21.2987 22.4163 20.0565C22.4163 18.8439 21.4403 17.8679 20.2277 17.8679C18.9855 17.8679 18.0095 18.8439 18.0095 20.0565C18.0095 21.2987 19.0151 22.2747 20.2277 22.2747ZM24.5458 16.537C24.5458 16.9806 24.1908 17.3355 23.7472 17.3355C23.3036 17.3355 22.9487 16.9806 22.9487 16.537C22.9487 16.0933 23.3036 15.7384 23.7472 15.7384C24.1908 15.7384 24.5458 16.0933 24.5458 16.537ZM26.7935 17.3355C26.8527 18.4298 26.8527 21.7128 26.7935 22.8071C26.7344 23.8718 26.4978 24.7886 25.7288 25.5872C24.9598 26.3562 24.0134 26.5928 22.9487 26.6519C21.8544 26.7111 18.5714 26.7111 17.4771 26.6519C16.4124 26.5928 15.4955 26.3562 14.697 25.5872C13.928 24.7886 13.6914 23.8718 13.6323 22.8071C13.5731 21.7128 13.5731 18.4298 13.6323 17.3355C13.6914 16.2708 13.928 15.3244 14.697 14.5554C15.4955 13.7864 16.4124 13.5498 17.4771 13.4907C18.5714 13.4315 21.8544 13.4315 22.9487 13.4907C24.0134 13.5498 24.9598 13.7864 25.7288 14.5554C26.4978 15.3244 26.7344 16.2708 26.7935 17.3355ZM25.3739 23.9605C25.7288 23.1028 25.6401 21.0325 25.6401 20.0565C25.6401 19.1101 25.7288 17.0398 25.3739 16.1525C25.1373 15.5905 24.6936 15.1173 24.1317 14.9103C23.2444 14.5554 21.1741 14.6441 20.2277 14.6441C19.2517 14.6441 17.1814 14.5554 16.3237 14.9103C15.7321 15.1469 15.2885 15.5905 15.0519 16.1525C14.697 17.0398 14.7857 19.1101 14.7857 20.0565C14.7857 21.0325 14.697 23.1028 15.0519 23.9605C15.2885 24.552 15.7321 24.9957 16.3237 25.2323C17.1814 25.5872 19.2517 25.4985 20.2277 25.4985C21.1741 25.4985 23.2444 25.5872 24.1317 25.2323C24.6936 24.9957 25.1669 24.552 25.3739 23.9605Z" fill="white"/>
</svg>
