<svg width="167" height="64" viewBox="0 0 167 64" fill="none" xmlns="http://www.w3.org/2000/svg">
<path fill-rule="evenodd" clip-rule="evenodd" d="M8.46076 0.50001C12.6639 0.50001 15.8905 1.24731 18.1418 2.7395C20.3932 4.23409 21.5188 6.67805 21.5188 10.075C21.5188 13.4994 20.379 15.9708 18.1016 17.4917C15.8231 19.0126 12.5692 19.7731 8.33884 19.7731H6.34557V29.305H0V1.24012C1.38252 0.96632 2.84669 0.77501 4.39255 0.66501C5.9384 0.5562 7.29486 0.5 8.46076 0.5V0.50001ZM8.86675 5.96544C8.4063 5.96544 7.95179 5.97978 7.50437 6.00729C7.05695 6.03479 6.67107 6.06109 6.34557 6.0886V14.3077H8.33884C10.5345 14.3077 12.1893 14.0063 13.3019 13.4037C14.4133 12.8011 14.9697 11.6772 14.9697 10.0343C14.9697 9.2392 14.8264 8.58159 14.5424 8.06147C14.2571 7.54135 13.8511 7.12406 13.322 6.8084C12.7929 6.49394 12.1478 6.27394 11.3891 6.15078C10.6304 6.02763 9.78882 5.96545 8.86676 5.96545L8.86675 5.96544Z" fill="#F99D0B"/>
<path fill-rule="evenodd" clip-rule="evenodd" d="M23.4697 18.6014C23.4697 16.6728 23.7621 14.9845 24.3492 13.5377C24.9351 12.0921 25.7057 10.8869 26.6608 9.92198C27.6149 8.95827 28.7133 8.22651 29.9538 7.7315C31.1954 7.23529 32.4702 6.98779 33.7805 6.98779C36.8343 6.98779 39.2478 7.93117 41.0209 9.81914C42.794 11.7059 43.6806 14.4823 43.6806 18.147C43.6806 18.5045 43.6664 18.8979 43.6392 19.3235C43.6119 19.7516 43.5847 20.1294 43.5587 20.4606H29.7289C29.865 21.7292 30.4509 22.7336 31.489 23.4785C32.5247 24.2222 33.9166 24.5941 35.6613 24.5941C36.7799 24.5941 37.8771 24.49 38.9555 24.2832C40.0326 24.0775 40.912 23.8229 41.5938 23.5192L42.4117 28.5195C42.085 28.6857 41.6483 28.8507 41.1038 29.0157C40.5569 29.1807 39.9509 29.3253 39.2821 29.4497C38.6146 29.574 37.8973 29.6769 37.135 29.7594C36.3704 29.8419 35.6069 29.8837 34.8435 29.8837C32.907 29.8837 31.2227 29.5944 29.7904 29.0157C28.3594 28.437 27.1722 27.6454 26.2312 26.6399C25.2902 25.6343 24.5942 24.4422 24.1444 23.0648C23.6946 21.6874 23.4697 20.2 23.4697 18.6014L23.4697 18.6014ZM37.7884 16.2459C37.7612 15.7222 37.6736 15.2116 37.5232 14.7166C37.3729 14.2204 37.1409 13.7804 36.8273 13.393C36.5136 13.008 36.1182 12.6912 35.6412 12.4425C35.1642 12.1949 34.5712 12.0706 33.861 12.0706C33.1792 12.0706 32.5933 12.189 32.1021 12.4221C31.6121 12.6565 31.2025 12.9673 30.8747 13.3524C30.548 13.7386 30.2947 14.1857 30.1183 14.6951C29.9408 15.2057 29.8106 15.7222 29.7289 16.2459H37.7884Z" fill="black"/>
<path fill-rule="evenodd" clip-rule="evenodd" d="M48.1807 2.15256L54.2776 1.16016V7.56657H61.6009V12.6912H54.2776V20.3375C54.2776 21.6325 54.5025 22.6655 54.9523 23.4367C55.4021 24.2079 56.3088 24.5942 57.6736 24.5942C58.3281 24.5942 59.0028 24.532 59.6988 24.4076C60.3936 24.2833 61.028 24.1123 61.6009 23.8911L62.4591 28.6857C61.724 28.9894 60.9049 29.2501 60.0054 29.4701C59.1046 29.6901 58.0003 29.8013 56.6911 29.8013C55.0269 29.8013 53.6492 29.5741 52.559 29.1198C51.4677 28.6642 50.5953 28.0317 49.9408 27.2187C49.2862 26.4056 48.8293 25.4204 48.5701 24.263C48.3097 23.1055 48.1807 21.825 48.1807 20.4189L48.1807 2.15256Z" fill="black"/>
<path fill-rule="evenodd" clip-rule="evenodd" d="M80.0732 16.8228C79.5276 18.9176 78.9488 20.9981 78.3345 23.0642C77.7213 25.1303 77.0727 27.2108 76.3921 29.3044H71.6456C71.1532 28.1482 70.6194 26.7696 70.0453 25.1722C69.4713 23.5736 68.8747 21.8315 68.2604 19.9435C67.6449 18.0567 67.0152 16.0588 66.3725 13.9508C65.7297 11.844 65.1083 9.71455 64.5059 7.56592H70.9295C71.1485 8.55833 71.3888 9.63922 71.6492 10.8098C71.9108 11.9815 72.1842 13.1868 72.473 14.4267C72.7618 15.6666 73.0625 16.9137 73.3785 18.1668C73.6934 19.421 74.0165 20.6263 74.3456 21.7825C74.7007 20.5701 75.0475 19.3301 75.3895 18.0627C75.7293 16.7965 76.0571 15.5494 76.3708 14.3227C76.6833 13.0971 76.9839 11.9122 77.2704 10.7691C77.5568 9.62487 77.8089 8.55833 78.0279 7.56592H82.4465C82.6643 8.55833 82.9105 9.62486 83.1827 10.7691C83.455 11.9122 83.7414 13.0971 84.0421 14.3227C84.3427 15.5494 84.6564 16.7965 84.9831 18.0627C85.3109 19.3302 85.6507 20.5701 86.0069 21.7825C86.3348 20.6263 86.6638 19.421 86.9941 18.1668C87.3231 16.9137 87.6321 15.6666 87.9197 14.4267C88.2073 13.1868 88.4819 11.9815 88.7435 10.8098C89.0039 9.63922 89.2442 8.55833 89.4632 7.56592H95.8052C95.2027 9.71454 94.5801 11.844 93.9374 13.9508C93.2947 16.0588 92.665 18.0567 92.0506 19.9435C91.434 21.8315 90.8338 23.5736 90.2444 25.1722C89.6573 26.7696 89.1164 28.1482 88.624 29.3044H83.8787C83.1957 27.2108 82.5282 25.1303 81.8736 23.0642C81.219 20.9981 80.6189 18.9176 80.0733 16.8228H80.0732Z" fill="black"/>
<path fill-rule="evenodd" clip-rule="evenodd" d="M97.5244 18.6014C97.5244 16.6728 97.8168 14.9845 98.4027 13.5377C98.9898 12.0921 99.7604 10.8869 100.714 9.92198C101.67 8.95827 102.767 8.22651 104.008 7.7315C105.249 7.23529 106.525 6.98779 107.834 6.98779C110.889 6.98779 113.302 7.93117 115.076 9.81914C116.849 11.7059 117.735 14.4823 117.735 18.147C117.735 18.5045 117.721 18.8979 117.694 19.3235C117.667 19.7516 117.639 20.1294 117.612 20.4606H103.784C103.92 21.7292 104.506 22.7336 105.542 23.4785C106.579 24.2222 107.97 24.5941 109.716 24.5941C110.835 24.5941 111.932 24.49 113.01 24.2832C114.086 24.0775 114.967 23.8229 115.649 23.5192L116.466 28.5195C116.14 28.6857 115.703 28.8507 115.157 29.0157C114.612 29.1807 114.004 29.3253 113.337 29.4497C112.668 29.574 111.952 29.6769 111.189 29.7594C110.425 29.8419 109.662 29.8837 108.898 29.8837C106.961 29.8837 105.277 29.5944 103.845 29.0157C102.413 28.437 101.227 27.6454 100.285 26.6399C99.3437 25.6343 98.6489 24.4422 98.1991 23.0648C97.7482 21.6874 97.5244 20.2 97.5244 18.6014L97.5244 18.6014ZM111.843 16.2459C111.816 15.7222 111.727 15.2116 111.578 14.7166C111.428 14.2204 111.196 13.7804 110.882 13.393C110.568 13.008 110.172 12.6912 109.696 12.4425C109.218 12.1949 108.625 12.0706 107.916 12.0706C107.234 12.0706 106.647 12.189 106.157 12.4221C105.666 12.6565 105.256 12.9673 104.929 13.3524C104.601 13.7386 104.349 14.1857 104.173 14.6951C103.994 15.2057 103.865 15.7222 103.784 16.2459H111.843Z" fill="black"/>
<path fill-rule="evenodd" clip-rule="evenodd" d="M121.417 18.6014C121.417 16.6728 121.709 14.9845 122.296 13.5377C122.884 12.0921 123.653 10.8869 124.608 9.92198C125.562 8.95827 126.661 8.22651 127.902 7.7315C129.143 7.23529 130.417 6.98779 131.728 6.98779C134.782 6.98779 137.195 7.93117 138.968 9.81914C140.743 11.7059 141.629 14.4823 141.629 18.147C141.629 18.5045 141.615 18.8979 141.588 19.3235C141.559 19.7516 141.533 20.1294 141.505 20.4606H127.676C127.812 21.7292 128.399 22.7336 129.436 23.4785C130.473 24.2222 131.864 24.5941 133.61 24.5941C134.727 24.5941 135.824 24.49 136.903 24.2832C137.98 24.0775 138.859 23.8229 139.541 23.5192L140.36 28.5195C140.033 28.6857 139.597 28.8507 139.051 29.0157C138.504 29.1807 137.898 29.3253 137.229 29.4497C136.562 29.574 135.846 29.6769 135.082 29.7594C134.318 29.8419 133.554 29.8837 132.791 29.8837C130.854 29.8837 129.17 29.5944 127.738 29.0157C126.307 28.437 125.119 27.6454 124.178 26.6399C123.237 25.6343 122.542 24.4422 122.092 23.0648C121.642 21.6874 121.417 20.2 121.417 18.6014L121.417 18.6014ZM135.737 16.2459C135.708 15.7222 135.621 15.2116 135.471 14.7166C135.32 14.2204 135.088 13.7804 134.775 13.393C134.461 13.008 134.066 12.6912 133.588 12.4425C133.111 12.1949 132.518 12.0706 131.808 12.0706C131.126 12.0706 130.541 12.189 130.049 12.4221C129.559 12.6565 129.15 12.9673 128.822 13.3524C128.495 13.7386 128.242 14.1857 128.066 14.6951C127.888 15.2057 127.759 15.7222 127.676 16.2459H135.737Z" fill="black"/>
<path fill-rule="evenodd" clip-rule="evenodd" d="M146.333 8.30972C147.37 8.00721 148.706 7.72384 150.342 7.46319C151.979 7.20133 153.698 7.06982 155.498 7.06982C157.324 7.06982 158.845 7.31134 160.06 7.7932C161.273 8.27506 162.234 8.95778 162.944 9.83899C163.653 10.7202 164.158 11.7676 164.457 12.98C164.758 14.1924 164.908 15.5423 164.908 17.0298V29.3045H158.812V17.7735C158.812 15.7898 158.552 14.3849 158.035 13.5575C157.516 12.7313 156.547 12.3188 155.13 12.3188C154.693 12.3188 154.229 12.3391 153.738 12.381C153.248 12.4217 152.811 12.4695 152.43 12.5257V29.3045H146.333L146.333 8.30972Z" fill="black"/>
<path fill-rule="evenodd" clip-rule="evenodd" d="M152.378 62.0682C155.597 60.3273 156.726 61.0328 158.094 61.798C168.539 67.6389 165.572 56.8898 161.091 52.9022C158.469 50.5694 154.676 49.3594 151.076 51.3992C143.956 55.4358 142.277 67.5312 152.378 62.0682V62.0682Z" fill="#F99D0B"/>
<path fill-rule="evenodd" clip-rule="evenodd" d="M155.257 40.4972C157.025 40.5307 158.432 41.9392 158.387 44.3508C158.343 46.7625 156.864 49.2639 155.098 49.2304C153.33 49.1969 151.944 46.643 151.989 44.2313C152.033 41.8196 153.491 40.4637 155.257 40.4972V40.4972Z" fill="#F99D0B"/>
<path fill-rule="evenodd" clip-rule="evenodd" d="M144.153 43.7982C145.762 43.2015 147.757 43.9799 148.965 46.1823C150.172 48.3848 150.135 51.1779 148.527 51.7745C146.918 52.3711 144.35 50.5453 143.141 48.3441C141.934 46.1405 142.545 44.3948 144.153 43.7982L144.153 43.7982Z" fill="#F99D0B"/>
<path fill-rule="evenodd" clip-rule="evenodd" d="M165.061 43.3996C166.732 43.8851 167.544 45.5829 166.6 47.8583C165.654 50.1337 163.308 52.1257 161.637 51.6414C159.966 51.156 159.602 48.3772 160.547 46.1019C161.492 43.8265 163.39 42.9154 165.061 43.3996Z" fill="#F99D0B"/>
<path fill-rule="evenodd" clip-rule="evenodd" d="M66.8879 63.4739C62.2788 63.4739 58.7669 62.1789 56.3534 59.5891C53.9387 56.9993 52.7314 53.3214 52.7314 48.5542C52.7314 46.1844 53.1007 44.0705 53.8358 42.21C54.5732 40.3507 55.5817 38.7796 56.8647 37.4991C58.1455 36.2173 59.6736 35.2464 61.4467 34.5852C63.2198 33.924 65.142 33.5928 67.2158 33.5928C68.4148 33.5928 69.5062 33.6825 70.4886 33.8618C71.4698 34.0412 72.3303 34.248 73.0654 34.4824C73.8028 34.7155 74.4159 34.9571 74.9072 35.2045C75.3972 35.4532 75.7523 35.6458 75.9713 35.7832L74.1295 40.9904C73.2572 40.5229 72.2404 40.1235 71.0816 39.7923C69.9216 39.4611 68.6066 39.2961 67.1329 39.2961C66.1517 39.2961 65.1906 39.4611 64.2484 39.7923C63.3074 40.1235 62.4753 40.6544 61.7532 41.3838C61.03 42.1131 60.45 43.0565 60.0145 44.2151C59.5777 45.3713 59.3599 46.7774 59.3599 48.4299C59.3599 49.7523 59.5031 50.9862 59.7896 52.1293C60.076 53.2735 60.54 54.2576 61.1804 55.0838C61.8207 55.91 62.6599 56.5664 63.6968 57.0471C64.7337 57.5301 65.9883 57.7705 67.4608 57.7705C68.3876 57.7705 69.2209 57.7155 69.956 57.6055C70.6934 57.4955 71.3479 57.3651 71.9208 57.2133C72.4937 57.0614 72.9979 56.8892 73.4347 56.6956C73.8703 56.5031 74.2656 56.3237 74.6207 56.1587L76.3796 61.3252C75.4801 61.8764 74.2112 62.3726 72.5754 62.8126C70.9384 63.2526 69.0422 63.4738 66.8879 63.4738L66.8879 63.4739Z" fill="#385170"/>
<path fill-rule="evenodd" clip-rule="evenodd" d="M88.2019 40.5776C90.0023 40.5776 91.502 40.7845 92.7022 41.197C93.9024 41.6107 94.8635 42.2038 95.5868 42.975C96.31 43.7462 96.8213 44.6836 97.1219 45.7848C97.4214 46.8872 97.5717 48.114 97.5717 49.4627V62.2755C96.6982 62.468 95.485 62.6952 93.9296 62.9571C92.3755 63.2189 90.4935 63.3492 88.2848 63.3492C86.8928 63.3492 85.631 63.2261 84.4995 62.9786C83.3679 62.7299 82.3926 62.3233 81.5747 61.759C80.7556 61.1946 80.1282 60.4569 79.6915 59.5482C79.2559 58.6383 79.0381 57.5227 79.0381 56.1991C79.0381 54.9329 79.2902 53.858 79.7944 52.9768C80.2987 52.0944 80.9745 51.3925 81.8197 50.8676C82.6648 50.3451 83.6331 49.9661 84.7244 49.7317C85.8157 49.4974 86.9473 49.3802 88.1203 49.3802C88.9109 49.3802 89.614 49.4149 90.2272 49.483C90.8415 49.5536 91.3386 49.642 91.7209 49.752V49.1733C91.7209 48.1271 91.4072 47.2866 90.7799 46.6529C90.1526 46.0191 89.0613 45.7023 87.5071 45.7023C86.4702 45.7023 85.4476 45.7788 84.4379 45.9295C83.4294 46.0813 82.5559 46.2953 81.8197 46.5703L81.042 41.6107C81.3971 41.5007 81.8398 41.3835 82.3724 41.2592C82.9039 41.1348 83.4827 41.0248 84.1112 40.9292C84.7385 40.8323 85.399 40.7498 86.095 40.6805C86.791 40.6123 87.4929 40.5776 88.2019 40.5776H88.2019ZM88.6931 58.5976C89.2921 58.5976 89.8661 58.5833 90.4118 58.5558C90.9575 58.5283 91.3943 58.4876 91.7209 58.4314V53.7611C91.4747 53.7061 91.1066 53.6511 90.6166 53.5961C90.1254 53.5411 89.6756 53.5136 89.266 53.5136C88.6931 53.5136 88.1546 53.5483 87.6504 53.6164C87.1449 53.6858 86.7022 53.8173 86.3199 54.0086C85.9376 54.2023 85.6382 54.4642 85.4203 54.7942C85.2014 55.1254 85.0925 55.5379 85.0925 56.0341C85.0925 56.999 85.4132 57.6674 86.0536 58.0392C86.6951 58.4111 87.5746 58.5976 88.6931 58.5976V58.5976Z" fill="black"/>
<path fill-rule="evenodd" clip-rule="evenodd" d="M116.065 46.6109C115.521 46.4734 114.879 46.3287 114.143 46.1769C113.406 46.0262 112.615 45.9497 111.77 45.9497C111.387 45.9497 110.931 45.9844 110.399 46.0525C109.867 46.1231 109.465 46.1972 109.193 46.2809V62.8948H103.096V42.3137C104.187 41.9274 105.476 41.5628 106.961 41.2184C108.448 40.8729 110.105 40.7007 111.933 40.7007C112.261 40.7007 112.656 40.721 113.12 40.7629C113.583 40.8047 114.047 40.8597 114.511 40.9291C114.975 40.9972 115.438 41.0809 115.902 41.1766C116.366 41.2734 116.761 41.3906 117.089 41.5281L116.065 46.6109Z" fill="black"/>
<path fill-rule="evenodd" clip-rule="evenodd" d="M118.93 52.1912C118.93 50.2626 119.223 48.5743 119.81 47.1275C120.396 45.682 121.166 44.4767 122.121 43.5118C123.076 42.5481 124.173 41.8164 125.415 41.3213C126.655 40.8251 127.931 40.5776 129.24 40.5776C132.294 40.5776 134.709 41.521 136.482 43.409C138.255 45.2958 139.142 48.0721 139.142 51.7369C139.142 52.0944 139.128 52.4877 139.1 52.9134C139.073 53.3414 139.046 53.7193 139.019 54.0505H125.19C125.326 55.3191 125.912 56.3234 126.949 57.0684C127.985 57.8121 129.377 58.1839 131.123 58.1839C132.241 58.1839 133.338 58.0799 134.417 57.873C135.494 57.6674 136.372 57.4127 137.055 57.109L137.873 62.1093C137.546 62.2755 137.109 62.4405 136.564 62.6055C136.018 62.7705 135.411 62.9152 134.743 63.0395C134.075 63.1639 133.358 63.2667 132.595 63.3492C131.832 63.4317 131.067 63.4736 130.303 63.4736C128.367 63.4736 126.684 63.1842 125.252 62.6055C123.819 62.0268 122.633 61.2353 121.692 60.2297C120.751 59.2242 120.055 58.0321 119.606 56.6547C119.155 55.2772 118.93 53.7898 118.93 52.1912H118.93ZM133.25 49.8357C133.222 49.312 133.134 48.8015 132.984 48.3065C132.834 47.8103 132.602 47.3703 132.288 46.9829C131.975 46.5979 131.579 46.281 131.101 46.0323C130.624 45.7848 130.031 45.6605 129.322 45.6605C128.64 45.6605 128.054 45.7788 127.563 46.012C127.072 46.2463 126.662 46.5572 126.336 46.9422C126.008 47.3284 125.756 47.7756 125.578 48.2849C125.401 48.7955 125.272 49.312 125.19 49.8357H133.25Z" fill="black"/>
</svg>
