<svg width="64" height="64" viewBox="0 0 64 64" fill="none" xmlns="http://www.w3.org/2000/svg">
<path fill-rule="evenodd" clip-rule="evenodd" d="M32.1707 62.3277C49.0098 62.3277 62.6607 48.6768 62.6607 31.8377C62.6607 14.9985 49.0098 1.34766 32.1707 1.34766C15.3315 1.34766 1.68066 14.9985 1.68066 31.8377C1.68066 48.6768 15.3315 62.3277 32.1707 62.3277ZM63.6607 31.8377C63.6607 49.2291 49.5621 63.3277 32.1707 63.3277C14.7792 63.3277 0.680664 49.2291 0.680664 31.8377C0.680664 14.4462 14.7792 0.347656 32.1707 0.347656C49.5621 0.347656 63.6607 14.4462 63.6607 31.8377Z" fill="#385170"/>
<path fill-rule="evenodd" clip-rule="evenodd" d="M32.1606 46.4575C40.2351 46.4575 46.7806 39.9119 46.7806 31.8375C46.7806 23.7631 40.2351 17.2175 32.1606 17.2175C24.0862 17.2175 17.5406 23.7631 17.5406 31.8375C17.5406 39.9119 24.0862 46.4575 32.1606 46.4575ZM47.7806 31.8375C47.7806 40.4642 40.7873 47.4575 32.1606 47.4575C23.534 47.4575 16.5406 40.4642 16.5406 31.8375C16.5406 23.2108 23.534 16.2175 32.1606 16.2175C40.7873 16.2175 47.7806 23.2108 47.7806 31.8375Z" fill="#385170"/>
<path d="M37.9784 31.8881C38.3526 32.1064 38.5397 32.4261 38.5397 32.847C38.5397 33.268 38.3526 33.5877 37.9784 33.806L29.7456 38.6708C29.387 38.8891 29.0128 38.8891 28.623 38.6708C28.2488 38.4681 28.0616 38.1484 28.0616 37.7119V27.9822C28.0616 27.5145 28.2565 27.187 28.6464 26.9999C29.0518 26.7972 29.4182 26.805 29.7456 27.0233L37.9784 31.8881Z" fill="#F99D0B"/>
</svg>
