<svg width="41" height="41" viewBox="0 0 41 41" fill="none" xmlns="http://www.w3.org/2000/svg">
<rect x="0.283203" y="0.000976562" width="40.14" height="40.14" rx="20.07" fill="#F99D0B"/>
<path d="M26.058 16.8263C25.3149 16.8263 24.6293 16.5802 24.0788 16.1649C23.4473 15.6888 22.9937 14.9905 22.8335 14.1857C22.7933 13.9833 22.7722 13.7776 22.7704 13.5713H20.6478L20.6452 22.5483C20.6452 23.3976 20.0921 24.1178 19.3254 24.3711C19.0958 24.447 18.8539 24.4791 18.6124 24.4657C18.293 24.4481 17.9937 24.3518 17.7335 24.1961C17.1799 23.865 16.8046 23.2644 16.7944 22.5773C16.7784 21.5034 17.6465 20.6278 18.7197 20.6278C18.9315 20.6278 19.1349 20.6624 19.3254 20.7252V18.57C19.1245 18.5403 18.9201 18.5248 18.7133 18.5248C17.5387 18.5248 16.4401 19.013 15.6549 19.8926C15.0613 20.5574 14.7053 21.4055 14.6504 22.2947C14.5784 23.463 15.0059 24.5735 15.8349 25.3929C15.9567 25.5132 16.0846 25.6248 16.2184 25.7278C16.9292 26.2748 17.7981 26.5713 18.7133 26.5713C18.9201 26.5713 19.1245 26.556 19.3254 26.5263C20.1804 26.3996 20.9692 26.0083 21.5917 25.3929C22.3567 24.6368 22.7793 23.6331 22.7839 22.5648L22.7729 17.8206C23.1387 18.1028 23.5394 18.3364 23.9651 18.5159C24.6311 18.7969 25.3373 18.9393 26.0641 18.939V16.8258L26.058 16.8263Z" fill="white"/>
</svg>
