<svg width="41" height="41" viewBox="0 0 41 41" fill="none" xmlns="http://www.w3.org/2000/svg">
<rect x="0.422852" y="0.000976562" width="40.14" height="40.14" rx="20.07" fill="#F99D0B"/>
<path d="M27.6436 16.4893C27.9717 17.6377 27.9717 20.0986 27.9717 20.0986C27.9717 20.0986 27.9717 22.5322 27.6436 23.708C27.4795 24.3643 26.96 24.8564 26.3311 25.0205C25.1553 25.3213 20.5068 25.3213 20.5068 25.3213C20.5068 25.3213 15.8311 25.3213 14.6553 25.0205C14.0264 24.8564 13.5068 24.3643 13.3428 23.708C13.0146 22.5322 13.0146 20.0986 13.0146 20.0986C13.0146 20.0986 13.0146 17.6377 13.3428 16.4893C13.5068 15.833 14.0264 15.3135 14.6553 15.1494C15.8311 14.8213 20.5068 14.8213 20.5068 14.8213C20.5068 14.8213 25.1553 14.8213 26.3311 15.1494C26.96 15.3135 27.4795 15.833 27.6436 16.4893ZM18.9756 22.3135L22.8584 20.0986L18.9756 17.8838V22.3135Z" fill="white"/>
</svg>
