<svg width="15" height="15" viewBox="0 0 15 15" fill="none" xmlns="http://www.w3.org/2000/svg">
<path d="M14.5054 7.01465C14.5054 10.8806 11.3714 14.0146 7.50537 14.0146C3.63938 14.0146 0.505371 10.8806 0.505371 7.01465C0.505371 3.14866 3.63938 0.0146484 7.50537 0.0146484C11.3714 0.0146484 14.5054 3.14866 14.5054 7.01465Z" fill="#F99D0B"/>
<path d="M8.02928 8.27063H3.30536C3.02922 8.27063 2.80536 8.04677 2.80536 7.77063V6.47063C2.80536 6.19449 3.02922 5.97063 3.30536 5.97063H8.02911L6.34592 4.28744C6.15066 4.09218 6.15066 3.7756 6.34592 3.58033L7.26516 2.66109C7.46042 2.46583 7.77701 2.46583 7.97227 2.6611L12.0783 6.76716C12.2736 6.96242 12.2736 7.27901 12.0783 7.47427L7.97227 11.5803C7.77701 11.7756 7.46043 11.7756 7.26516 11.5803L6.34592 10.6611C6.15066 10.4658 6.15066 10.1493 6.34592 9.95399L8.02928 8.27063Z" fill="white"/>
</svg>
