<svg width="14" height="14" viewBox="0 0 14 14" fill="none" xmlns="http://www.w3.org/2000/svg">
<path d="M13.5899 6.70794L7.29344 0.411453C7.03792 0.159453 6.68791 0.00195312 6.30293 0.00195312H1.40294C0.629418 0.00195312 0.00292969 0.628442 0.00292969 1.40196V6.30195C0.00292969 6.69045 0.16043 7.04046 0.41594 7.29246L6.71594 13.5925C6.96794 13.8445 7.31795 14.002 7.70294 14.002C8.08792 14.002 8.44145 13.8445 8.69345 13.5925L13.5934 8.69247C13.8454 8.43696 14.0029 8.08698 14.0029 7.70196C14.0029 7.31346 13.8454 6.96345 13.5899 6.70794ZM2.45294 3.50196C1.87193 3.50196 1.40294 3.03297 1.40294 2.45196C1.40294 1.87095 1.87193 1.40196 2.45294 1.40196C3.03395 1.40196 3.50294 1.87095 3.50294 2.45196C3.50294 3.03297 3.03392 3.50196 2.45294 3.50196Z" fill="#385170"/>
</svg>
