<svg width="15" height="15" viewBox="0 0 15 15" fill="none" xmlns="http://www.w3.org/2000/svg">
<path d="M13.8123 7.6513L7.51585 1.35481C7.26034 1.10281 6.91033 0.945312 6.52534 0.945312H1.62535C0.85183 0.945312 0.225342 1.5718 0.225342 2.34532V7.24531C0.225342 7.63381 0.382842 7.98382 0.638352 8.23582L6.93835 14.5358C7.19035 14.7878 7.54036 14.9453 7.92535 14.9453C8.31034 14.9453 8.66386 14.7878 8.91586 14.5358L13.8158 9.63583C14.0678 9.38032 14.2253 9.03034 14.2253 8.64532C14.2253 8.25682 14.0678 7.90681 13.8123 7.6513ZM2.67535 4.44532C2.09434 4.44532 1.62535 3.97633 1.62535 3.39532C1.62535 2.81431 2.09434 2.34532 2.67535 2.34532C3.25636 2.34532 3.72535 2.81431 3.72535 3.39532C3.72535 3.97633 3.25633 4.44532 2.67535 4.44532Z" fill="#F99D0B"/>
</svg>
