<svg width="13" height="14" viewBox="0 0 13 14" fill="none" xmlns="http://www.w3.org/2000/svg">
<path d="M10.998 0.875C11.709 0.875 12.3105 1.47656 12.3105 2.1875V11.8125C12.3105 12.5508 11.709 13.125 10.998 13.125H7.22461V8.96875H8.81055L9.11133 7H7.22461V5.74219C7.22461 5.19531 7.49805 4.67578 8.3457 4.67578H9.19336V3.00781C9.19336 3.00781 8.42773 2.87109 7.66211 2.87109C6.13086 2.87109 5.11914 3.82812 5.11914 5.52344V7H3.39648V8.96875H5.11914V13.125H1.37305C0.634766 13.125 0.0605469 12.5508 0.0605469 11.8125V2.1875C0.0605469 1.47656 0.634766 0.875 1.37305 0.875H10.998Z" fill="white"/>
</svg>
