<svg width="13" height="14" viewBox="0 0 13 14" fill="none" xmlns="http://www.w3.org/2000/svg">
<path d="M6.82812 3.8418C8.55078 3.8418 9.97266 5.26367 9.97266 6.98633C9.97266 8.73633 8.55078 10.1309 6.82812 10.1309C5.07812 10.1309 3.68359 8.73633 3.68359 6.98633C3.68359 5.26367 5.07812 3.8418 6.82812 3.8418ZM6.82812 9.03711C7.94922 9.03711 8.85156 8.13477 8.85156 6.98633C8.85156 5.86523 7.94922 4.96289 6.82812 4.96289C5.67969 4.96289 4.77734 5.86523 4.77734 6.98633C4.77734 8.13477 5.70703 9.03711 6.82812 9.03711ZM10.8203 3.73242C10.8203 4.14258 10.4922 4.4707 10.082 4.4707C9.67188 4.4707 9.34375 4.14258 9.34375 3.73242C9.34375 3.32227 9.67188 2.99414 10.082 2.99414C10.4922 2.99414 10.8203 3.32227 10.8203 3.73242ZM12.8984 4.4707C12.9531 5.48242 12.9531 8.51758 12.8984 9.5293C12.8438 10.5137 12.625 11.3613 11.9141 12.0996C11.2031 12.8105 10.3281 13.0293 9.34375 13.084C8.33203 13.1387 5.29688 13.1387 4.28516 13.084C3.30078 13.0293 2.45312 12.8105 1.71484 12.0996C1.00391 11.3613 0.785156 10.5137 0.730469 9.5293C0.675781 8.51758 0.675781 5.48242 0.730469 4.4707C0.785156 3.48633 1.00391 2.61133 1.71484 1.90039C2.45312 1.18945 3.30078 0.970703 4.28516 0.916016C5.29688 0.861328 8.33203 0.861328 9.34375 0.916016C10.3281 0.970703 11.2031 1.18945 11.9141 1.90039C12.625 2.61133 12.8438 3.48633 12.8984 4.4707ZM11.5859 10.5957C11.9141 9.80273 11.832 7.88867 11.832 6.98633C11.832 6.11133 11.9141 4.19727 11.5859 3.37695C11.3672 2.85742 10.957 2.41992 10.4375 2.22852C9.61719 1.90039 7.70312 1.98242 6.82812 1.98242C5.92578 1.98242 4.01172 1.90039 3.21875 2.22852C2.67188 2.44727 2.26172 2.85742 2.04297 3.37695C1.71484 4.19727 1.79688 6.11133 1.79688 6.98633C1.79688 7.88867 1.71484 9.80273 2.04297 10.5957C2.26172 11.1426 2.67188 11.5527 3.21875 11.7715C4.01172 12.0996 5.92578 12.0176 6.82812 12.0176C7.70312 12.0176 9.61719 12.0996 10.4375 11.7715C10.957 11.5527 11.3945 11.1426 11.5859 10.5957Z" fill="white"/>
</svg>
