<svg width="13" height="10" viewBox="0 0 13 10" fill="none" xmlns="http://www.w3.org/2000/svg">
<path d="M11.8262 3.47656C11.873 3.42969 11.9199 3.42188 11.9668 3.45312C12.0293 3.48438 12.0605 3.53125 12.0605 3.59375V8.375C12.0605 8.6875 11.9512 8.95312 11.7324 9.17188C11.5137 9.39062 11.248 9.5 10.9355 9.5H1.18555C0.873047 9.5 0.607422 9.39062 0.388672 9.17188C0.169922 8.95312 0.0605469 8.6875 0.0605469 8.375V3.59375C0.0605469 3.53125 0.0839844 3.49219 0.130859 3.47656C0.193359 3.44531 0.248047 3.44531 0.294922 3.47656C0.810547 3.86719 2.01367 4.75 3.9043 6.125C3.93555 6.15625 4.03711 6.24219 4.20898 6.38281C4.39648 6.52344 4.54492 6.63281 4.6543 6.71094C4.76367 6.77344 4.9043 6.85938 5.07617 6.96875C5.24805 7.0625 5.41211 7.13281 5.56836 7.17969C5.74023 7.22656 5.9043 7.25 6.06055 7.25C6.20117 7.25 6.3418 7.23438 6.48242 7.20312C6.62305 7.15625 6.75586 7.10938 6.88086 7.0625C7.00586 7 7.13867 6.92188 7.2793 6.82812C7.41992 6.73438 7.53711 6.65625 7.63086 6.59375C7.72461 6.51562 7.83398 6.42969 7.95898 6.33594C8.08398 6.24219 8.16992 6.17188 8.2168 6.125C10.0605 4.79688 11.2637 3.91406 11.8262 3.47656ZM6.06055 6.5C5.93555 6.5 5.7793 6.46094 5.5918 6.38281C5.41992 6.28906 5.2793 6.21094 5.16992 6.14844C5.06055 6.07031 4.89648 5.95312 4.67773 5.79688C4.47461 5.625 4.36523 5.53906 4.34961 5.53906C2.44336 4.14844 1.08398 3.14062 0.271484 2.51562C0.130859 2.40625 0.0605469 2.25781 0.0605469 2.07031V1.625C0.0605469 1.3125 0.169922 1.04688 0.388672 0.828125C0.607422 0.609375 0.873047 0.5 1.18555 0.5H10.9355C11.248 0.5 11.5137 0.609375 11.7324 0.828125C11.9512 1.04688 12.0605 1.3125 12.0605 1.625V2.07031C12.0605 2.25781 11.9902 2.40625 11.8496 2.51562C11.084 3.10938 9.72461 4.11719 7.77148 5.53906C7.75586 5.53906 7.63867 5.625 7.41992 5.79688C7.2168 5.95312 7.06055 6.07031 6.95117 6.14844C6.8418 6.21094 6.69336 6.28906 6.50586 6.38281C6.33398 6.46094 6.18555 6.5 6.06055 6.5Z" fill="#F99D0B"/>
</svg>
