<svg width="12" height="14" viewBox="0 0 12 14" fill="none" xmlns="http://www.w3.org/2000/svg">
<path d="M11.683 3.75502C10.9399 3.75502 10.2543 3.50886 9.70377 3.09359C9.07234 2.61754 8.61868 1.91924 8.45847 1.11439C8.41829 0.912012 8.39717 0.706316 8.3954 0.5H6.27277L6.27023 9.477C6.27023 10.3264 5.71713 11.0465 4.95042 11.2998C4.72076 11.3757 4.47888 11.4078 4.23737 11.3944C3.91797 11.3769 3.61866 11.2805 3.35851 11.1249C2.8049 10.7938 2.42956 10.1931 2.41938 9.50599C2.40336 8.43208 3.27154 7.55653 4.34468 7.55653C4.55651 7.55653 4.75995 7.59112 4.95042 7.65393V5.49875C4.74952 5.469 4.54507 5.45348 4.33832 5.45348C3.16372 5.45348 2.06515 5.94174 1.27987 6.82136C0.686339 7.48609 0.330321 8.33418 0.275393 9.22346C0.203426 10.3917 0.630902 11.5022 1.45992 12.3216C1.58172 12.4419 1.70964 12.5535 1.8434 12.6565C2.55416 13.2035 3.4231 13.5 4.33832 13.5C4.54507 13.5 4.74952 13.4847 4.95042 13.455C5.80537 13.3283 6.5942 12.937 7.21673 12.3216C7.98166 11.5656 8.4043 10.5618 8.40888 9.49352L8.39795 4.74933C8.76372 5.03146 9.16442 5.26515 9.5901 5.44458C10.2561 5.72558 10.9623 5.86799 11.6891 5.86774V3.75451L11.683 3.75502Z" fill="white"/>
</svg>
