<svg width="16" height="12" viewBox="0 0 16 12" fill="none" xmlns="http://www.w3.org/2000/svg">
<path d="M14.9395 2.41797C15.2676 3.56641 15.2676 6.02734 15.2676 6.02734C15.2676 6.02734 15.2676 8.46094 14.9395 9.63672C14.7754 10.293 14.2559 10.7852 13.627 10.9492C12.4512 11.25 7.80273 11.25 7.80273 11.25C7.80273 11.25 3.12695 11.25 1.95117 10.9492C1.32227 10.7852 0.802734 10.293 0.638672 9.63672C0.310547 8.46094 0.310547 6.02734 0.310547 6.02734C0.310547 6.02734 0.310547 3.56641 0.638672 2.41797C0.802734 1.76172 1.32227 1.24219 1.95117 1.07812C3.12695 0.75 7.80273 0.75 7.80273 0.75C7.80273 0.75 12.4512 0.75 13.627 1.07812C14.2559 1.24219 14.7754 1.76172 14.9395 2.41797ZM6.27148 8.24219L10.1543 6.02734L6.27148 3.8125V8.24219Z" fill="white"/>
</svg>
